<?xml version="1.0" standalone="no"?>
 <!DOCTYPE svg PUBLIC "-//W3C//DTD SVG 1.1//EN" 
 "http://www.w3.org/Graphics/SVG/1.1/DTD/svg11.dtd"> 
<svg
  xmlns:svg="http://www.w3.org/2000/svg"
  xmlns="http://www.w3.org/2000/svg"
  xmlns:xlink="http://www.w3.org/1999/xlink"
  version="1.1"
  width="24.3078mm" height="19.0754mm" viewBox="0.0000 0.0000 24.3078 19.0754">
<title>SVG Image created as att-F_Cu.svg date 2023/11/09 19:20:01 </title>
  <desc>Image generated by PCBNEW </desc>
<g style="fill:#000000; fill-opacity:1.0000;stroke:#000000; stroke-opacity:1.0000;
stroke-linecap:round; stroke-linejoin:round;"
 transform="translate(0 0) scale(1 1)">
</g>
<g style="fill:#000000; fill-opacity:0.0; 
stroke:#000000; stroke-width:0.0000; stroke-opacity:1; 
stroke-linecap:round; stroke-linejoin:round;">
</g>
<g style="fill:#000000; fill-opacity:1.0000; 
stroke:#000000; stroke-width:0.0212; stroke-opacity:1; 
stroke-linecap:round; stroke-linejoin:round;">
<rect x="-5.020450" y="-5.000000" width="34.328250" height="29.100000" rx="0.000000" />
</g>
<g style="fill:#FFFFFF; fill-opacity:1.0000; 
stroke:#FFFFFF; stroke-width:0.0212; stroke-opacity:1; 
stroke-linecap:round; stroke-linejoin:round;">
</g>
<g style="fill:#FFFFFF; fill-opacity:0.0; 
stroke:#FFFFFF; stroke-width:0.2000; stroke-opacity:1; 
stroke-linecap:round; stroke-linejoin:round;">
<path style="fill:#FFFFFF; fill-opacity:0.0; 
stroke:#FFFFFF; stroke-width:0.2000; stroke-opacity:1; 
stroke-linecap:round; stroke-linejoin:round;fill:none"
d="M 22.8778,1.4500
3.4778,1.4500
3.4778,9.0500
22.8778,9.0500
Z" /> 
</g>
<g style="fill:#FFFFFF; fill-opacity:1.0000; 
stroke:#FFFFFF; stroke-width:0.0000; stroke-opacity:1; 
stroke-linecap:round; stroke-linejoin:round;">
<circle cx="12.0778" cy="5.3500" r="0.4500" /> 
<circle cx="5.0778" cy="5.3500" r="0.4500" /> 
<g >
<path style="fill:#FFFFFF; fill-opacity:1.0000; 
stroke:#FFFFFF; stroke-width:0.0000; stroke-opacity:1; 
stroke-linecap:round; stroke-linejoin:round;fill-rule:evenodd;"
d="M 8.8778,6.7190
8.8620,6.6103
8.8069,6.4976
8.7182,6.4089
8.6055,6.3538
8.4968,6.3380
7.1588,6.3380
7.0501,6.3538
6.9374,6.4089
6.8487,6.4976
6.7936,6.6103
6.7778,6.7190
6.7778,7.4810
6.7936,7.5897
6.8487,7.7024
6.9374,7.7911
7.0501,7.8462
7.1588,7.8620
8.4968,7.8620
8.6055,7.8462
8.7182,7.7911
8.8069,7.7024
8.8620,7.5897
8.8778,7.4810
Z" /> 
<path style="fill:#FFFFFF; fill-opacity:1.0000; 
stroke:#FFFFFF; stroke-width:0.0000; stroke-opacity:1; 
stroke-linecap:round; stroke-linejoin:round;fill-rule:evenodd;"
d="M 6.2778,3.2190
6.2620,3.1103
6.2069,2.9976
6.1182,2.9089
6.0055,2.8538
5.8968,2.8380
4.5588,2.8380
4.4501,2.8538
4.3374,2.9089
4.2487,2.9976
4.1936,3.1103
4.1778,3.2190
4.1778,3.9810
4.1936,4.0897
4.2487,4.2024
4.3374,4.2911
4.4501,4.3462
4.5588,4.3620
5.8968,4.3620
6.0055,4.3462
6.1182,4.2911
6.2069,4.2024
6.2620,4.0897
6.2778,3.9810
Z" /> 
<path style="fill:#FFFFFF; fill-opacity:1.0000; 
stroke:#FFFFFF; stroke-width:0.0000; stroke-opacity:1; 
stroke-linecap:round; stroke-linejoin:round;fill-rule:evenodd;"
d="M 6.2778,6.7190
6.2620,6.6103
6.2069,6.4976
6.1182,6.4089
6.0055,6.3538
5.8968,6.3380
4.5588,6.3380
4.4501,6.3538
4.3374,6.4089
4.2487,6.4976
4.1936,6.6103
4.1778,6.7190
4.1778,7.4810
4.1936,7.5897
4.2487,7.7024
4.3374,7.7911
4.4501,7.8462
4.5588,7.8620
5.8968,7.8620
6.0055,7.8462
6.1182,7.7911
6.2069,7.7024
6.2620,7.5897
6.2778,7.4810
Z" /> 
<path style="fill:#FFFFFF; fill-opacity:1.0000; 
stroke:#FFFFFF; stroke-width:0.0000; stroke-opacity:1; 
stroke-linecap:round; stroke-linejoin:round;fill-rule:evenodd;"
d="M 13.7088,6.4000
13.8175,6.3842
13.9302,6.3291
14.0189,6.2404
14.0740,6.1277
14.0898,6.0190
14.0898,4.6810
14.0740,4.5723
14.0189,4.4596
13.9302,4.3709
13.8175,4.3158
13.7088,4.3000
12.9468,4.3000
12.8381,4.3158
12.7254,4.3709
12.6367,4.4596
12.5816,4.5723
12.5658,4.6810
12.5658,6.0190
12.5816,6.1277
12.6367,6.2404
12.7254,6.3291
12.8381,6.3842
12.9468,6.4000
Z" /> 
</g>
<g >
</g>
<g style="fill:#FFFFFF; fill-opacity:1.0000; 
stroke:#FFFFFF; stroke-width:0.0000; stroke-opacity:1; 
stroke-linecap:round; stroke-linejoin:round;">
<path style="fill:#FFFFFF; fill-opacity:1.0000; 
stroke:#FFFFFF; stroke-width:0.0000; stroke-opacity:1; 
stroke-linecap:round; stroke-linejoin:round;fill-rule:evenodd;"
d="M 19.1028,4.0750
19.0876,3.9985
19.0442,3.9336
18.9793,3.8902
18.9028,3.8750
18.5028,3.8750
18.4263,3.8902
18.3614,3.9336
18.3180,3.9985
18.3028,4.0750
18.3028,4.6250
18.3180,4.7015
18.3614,4.7664
18.4263,4.8098
18.5028,4.8250
18.9028,4.8250
18.9793,4.8098
19.0442,4.7664
19.0876,4.7015
19.1028,4.6250
Z" /> 
<path style="fill:#FFFFFF; fill-opacity:1.0000; 
stroke:#FFFFFF; stroke-width:0.0000; stroke-opacity:1; 
stroke-linecap:round; stroke-linejoin:round;fill-rule:evenodd;"
d="M 17.4528,4.0750
17.4376,3.9985
17.3942,3.9336
17.3293,3.8902
17.2528,3.8750
16.8528,3.8750
16.7763,3.8902
16.7114,3.9336
16.6680,3.9985
16.6528,4.0750
16.6528,4.6250
16.6680,4.7015
16.7114,4.7664
16.7763,4.8098
16.8528,4.8250
17.2528,4.8250
17.3293,4.8098
17.3942,4.7664
17.4376,4.7015
17.4528,4.6250
Z" /> 
</g>
<g >
</g>
<g style="fill:#FFFFFF; fill-opacity:1.0000; 
stroke:#FFFFFF; stroke-width:0.0000; stroke-opacity:1; 
stroke-linecap:round; stroke-linejoin:round;">
<path style="fill:#FFFFFF; fill-opacity:1.0000; 
stroke:#FFFFFF; stroke-width:0.0000; stroke-opacity:1; 
stroke-linecap:round; stroke-linejoin:round;fill-rule:evenodd;"
d="M 19.1028,7.6750
19.0876,7.5985
19.0442,7.5336
18.9793,7.4902
18.9028,7.4750
18.5028,7.4750
18.4263,7.4902
18.3614,7.5336
18.3180,7.5985
18.3028,7.6750
18.3028,8.2250
18.3180,8.3015
18.3614,8.3664
18.4263,8.4098
18.5028,8.4250
18.9028,8.4250
18.9793,8.4098
19.0442,8.3664
19.0876,8.3015
19.1028,8.2250
Z" /> 
<path style="fill:#FFFFFF; fill-opacity:1.0000; 
stroke:#FFFFFF; stroke-width:0.0000; stroke-opacity:1; 
stroke-linecap:round; stroke-linejoin:round;fill-rule:evenodd;"
d="M 17.4528,7.6750
17.4376,7.5985
17.3942,7.5336
17.3293,7.4902
17.2528,7.4750
16.8528,7.4750
16.7763,7.4902
16.7114,7.5336
16.6680,7.5985
16.6528,7.6750
16.6528,8.2250
16.6680,8.3015
16.7114,8.3664
16.7763,8.4098
16.8528,8.4250
17.2528,8.4250
17.3293,8.4098
17.3942,8.3664
17.4376,8.3015
17.4528,8.2250
Z" /> 
</g>
<g >
</g>
<g style="fill:#FFFFFF; fill-opacity:1.0000; 
stroke:#FFFFFF; stroke-width:0.0000; stroke-opacity:1; 
stroke-linecap:round; stroke-linejoin:round;">
<path style="fill:#FFFFFF; fill-opacity:1.0000; 
stroke:#FFFFFF; stroke-width:0.0000; stroke-opacity:1; 
stroke-linecap:round; stroke-linejoin:round;fill-rule:evenodd;"
d="M 19.1028,2.2750
19.0876,2.1985
19.0442,2.1336
18.9793,2.0902
18.9028,2.0750
18.5028,2.0750
18.4263,2.0902
18.3614,2.1336
18.3180,2.1985
18.3028,2.2750
18.3028,2.8250
18.3180,2.9015
18.3614,2.9664
18.4263,3.0098
18.5028,3.0250
18.9028,3.0250
18.9793,3.0098
19.0442,2.9664
19.0876,2.9015
19.1028,2.8250
Z" /> 
<path style="fill:#FFFFFF; fill-opacity:1.0000; 
stroke:#FFFFFF; stroke-width:0.0000; stroke-opacity:1; 
stroke-linecap:round; stroke-linejoin:round;fill-rule:evenodd;"
d="M 17.4528,2.2750
17.4376,2.1985
17.3942,2.1336
17.3293,2.0902
17.2528,2.0750
16.8528,2.0750
16.7763,2.0902
16.7114,2.1336
16.6680,2.1985
16.6528,2.2750
16.6528,2.8250
16.6680,2.9015
16.7114,2.9664
16.7763,3.0098
16.8528,3.0250
17.2528,3.0250
17.3293,3.0098
17.3942,2.9664
17.4376,2.9015
17.4528,2.8250
Z" /> 
</g>
<g >
</g>
<g style="fill:#FFFFFF; fill-opacity:1.0000; 
stroke:#FFFFFF; stroke-width:0.0000; stroke-opacity:1; 
stroke-linecap:round; stroke-linejoin:round;">
<path style="fill:#FFFFFF; fill-opacity:1.0000; 
stroke:#FFFFFF; stroke-width:0.0000; stroke-opacity:1; 
stroke-linecap:round; stroke-linejoin:round;fill-rule:evenodd;"
d="M 19.1028,5.8750
19.0876,5.7985
19.0442,5.7336
18.9793,5.6902
18.9028,5.6750
18.5028,5.6750
18.4263,5.6902
18.3614,5.7336
18.3180,5.7985
18.3028,5.8750
18.3028,6.4250
18.3180,6.5015
18.3614,6.5664
18.4263,6.6098
18.5028,6.6250
18.9028,6.6250
18.9793,6.6098
19.0442,6.5664
19.0876,6.5015
19.1028,6.4250
Z" /> 
<path style="fill:#FFFFFF; fill-opacity:1.0000; 
stroke:#FFFFFF; stroke-width:0.0000; stroke-opacity:1; 
stroke-linecap:round; stroke-linejoin:round;fill-rule:evenodd;"
d="M 17.4528,5.8750
17.4376,5.7985
17.3942,5.7336
17.3293,5.6902
17.2528,5.6750
16.8528,5.6750
16.7763,5.6902
16.7114,5.7336
16.6680,5.7985
16.6528,5.8750
16.6528,6.4250
16.6680,6.5015
16.7114,6.5664
16.7763,6.6098
16.8528,6.6250
17.2528,6.6250
17.3293,6.6098
17.3942,6.5664
17.4376,6.5015
17.4528,6.4250
Z" /> 
</g>
<g >
</g>
<g style="fill:#FFFFFF; fill-opacity:1.0000; 
stroke:#FFFFFF; stroke-width:0.0000; stroke-opacity:1; 
stroke-linecap:round; stroke-linejoin:round;">
<path style="fill:#FFFFFF; fill-opacity:1.0000; 
stroke:#FFFFFF; stroke-width:0.0000; stroke-opacity:1; 
stroke-linecap:round; stroke-linejoin:round;fill-rule:evenodd;"
d="M 20.1148,4.6750
20.1259,4.7591
20.1736,4.8614
20.2534,4.9412
20.3557,4.9889
20.4398,5.0000
22.0758,5.0000
22.1599,4.9889
22.2622,4.9412
22.3420,4.8614
22.3897,4.7591
22.4008,4.6750
22.4008,4.0250
22.3897,3.9409
22.3420,3.8386
22.2622,3.7588
22.1599,3.7111
22.0758,3.7000
20.4398,3.7000
20.3557,3.7111
20.2534,3.7588
20.1736,3.8386
20.1259,3.9409
20.1148,4.0250
Z" /> 
<path style="fill:#FFFFFF; fill-opacity:1.0000; 
stroke:#FFFFFF; stroke-width:0.0000; stroke-opacity:1; 
stroke-linecap:round; stroke-linejoin:round;fill-rule:evenodd;"
d="M 20.1148,6.4750
20.1259,6.5591
20.1736,6.6614
20.2534,6.7412
20.3557,6.7889
20.4398,6.8000
22.0758,6.8000
22.1599,6.7889
22.2622,6.7412
22.3420,6.6614
22.3897,6.5591
22.4008,6.4750
22.4008,5.8250
22.3897,5.7409
22.3420,5.6386
22.2622,5.5588
22.1599,5.5111
22.0758,5.5000
20.4398,5.5000
20.3557,5.5111
20.2534,5.5588
20.1736,5.6386
20.1259,5.7409
20.1148,5.8250
Z" /> 
<path style="fill:#FFFFFF; fill-opacity:1.0000; 
stroke:#FFFFFF; stroke-width:0.0000; stroke-opacity:1; 
stroke-linecap:round; stroke-linejoin:round;fill-rule:evenodd;"
d="M 20.1148,8.2750
20.1259,8.3591
20.1736,8.4614
20.2534,8.5412
20.3557,8.5889
20.4398,8.6000
22.0758,8.6000
22.1599,8.5889
22.2622,8.5412
22.3420,8.4614
22.3897,8.3591
22.4008,8.2750
22.4008,7.6250
22.3897,7.5409
22.3420,7.4386
22.2622,7.3588
22.1599,7.3111
22.0758,7.3000
20.4398,7.3000
20.3557,7.3111
20.2534,7.3588
20.1736,7.4386
20.1259,7.5409
20.1148,7.6250
Z" /> 
<path style="fill:#FFFFFF; fill-opacity:1.0000; 
stroke:#FFFFFF; stroke-width:0.0000; stroke-opacity:1; 
stroke-linecap:round; stroke-linejoin:round;fill-rule:evenodd;"
d="M 20.1148,2.8750
20.1259,2.9591
20.1736,3.0614
20.2534,3.1412
20.3557,3.1889
20.4398,3.2000
22.0758,3.2000
22.1599,3.1889
22.2622,3.1412
22.3420,3.0614
22.3897,2.9591
22.4008,2.8750
22.4008,2.2250
22.3897,2.1409
22.3420,2.0386
22.2622,1.9588
22.1599,1.9111
22.0758,1.9000
20.4398,1.9000
20.3557,1.9111
20.2534,1.9588
20.1736,2.0386
20.1259,2.1409
20.1148,2.2250
Z" /> 
</g>
<g >
</g>
<g style="fill:#FFFFFF; fill-opacity:1.0000; 
stroke:#FFFFFF; stroke-width:0.0000; stroke-opacity:1; 
stroke-linecap:round; stroke-linejoin:round;">
<circle cx="7.8278" cy="5.5500" r="0.4500" /> 
</g>
<g style="fill:#FFFFFF; fill-opacity:1.0000; 
stroke:#FFFFFF; stroke-width:0.0212; stroke-opacity:1; 
stroke-linecap:round; stroke-linejoin:round;">
</g>
<g style="fill:#FFFFFF; fill-opacity:1.0000; 
stroke:#FFFFFF; stroke-width:0.0000; stroke-opacity:1; 
stroke-linecap:round; stroke-linejoin:round;">
<circle cx="15.6778" cy="6.1500" r="0.4500" /> 
</g>
<g style="fill:#FFFFFF; fill-opacity:1.0000; 
stroke:#FFFFFF; stroke-width:0.0212; stroke-opacity:1; 
stroke-linecap:round; stroke-linejoin:round;">
</g>
<g style="fill:#FFFFFF; fill-opacity:1.0000; 
stroke:#FFFFFF; stroke-width:0.0000; stroke-opacity:1; 
stroke-linecap:round; stroke-linejoin:round;">
<circle cx="15.6778" cy="7.9500" r="0.4500" /> 
</g>
<g style="fill:#FFFFFF; fill-opacity:1.0000; 
stroke:#FFFFFF; stroke-width:0.0212; stroke-opacity:1; 
stroke-linecap:round; stroke-linejoin:round;">
</g>
<g style="fill:#FFFFFF; fill-opacity:1.0000; 
stroke:#FFFFFF; stroke-width:0.0000; stroke-opacity:1; 
stroke-linecap:round; stroke-linejoin:round;">
<circle cx="15.6778" cy="2.5500" r="0.4500" /> 
</g>
<g style="fill:#FFFFFF; fill-opacity:1.0000; 
stroke:#FFFFFF; stroke-width:0.0212; stroke-opacity:1; 
stroke-linecap:round; stroke-linejoin:round;">
</g>
<g >
</g>
<g style="fill:#FFFFFF; fill-opacity:1.0000; 
stroke:#FFFFFF; stroke-width:0.0212; stroke-opacity:1; 
stroke-linecap:round; stroke-linejoin:round;">
</g>
<g style="fill:#FFFFFF; fill-opacity:1.0000; 
stroke:#FFFFFF; stroke-width:0.7000; stroke-opacity:1; 
stroke-linecap:round; stroke-linejoin:round;">
</g>
<g style="fill:#FFFFFF; fill-opacity:0.0; 
stroke:#FFFFFF; stroke-width:0.7000; stroke-opacity:1; 
stroke-linecap:round; stroke-linejoin:round;">
<path d="M17.0528 4.3500
L16.4528 3.7500
" />
<path d="M9.6278 3.7500
L7.8278 5.5500
" />
<path d="M16.4528 3.7500
L9.6278 3.7500
" />
<path d="M17.0528 6.1500
L15.6778 6.1500
" />
<path d="M17.0528 7.9500
L15.6778 7.9500
" />
<path d="M17.0528 2.5500
L15.6778 2.5500
" />
<path d="M21.2578 4.3500
L18.7028 4.3500
" />
<path d="M21.2578 6.1500
L18.7028 6.1500
" />
<path d="M21.2578 7.9500
L18.7028 7.9500
" />
<path d="M21.2578 2.5500
L18.7028 2.5500
" />
</g>
<g >
</g>
</g> 
</svg>
