<?xml version="1.0" standalone="no"?>
 <!DOCTYPE svg PUBLIC "-//W3C//DTD SVG 1.1//EN" 
 "http://www.w3.org/Graphics/SVG/1.1/DTD/svg11.dtd"> 
<svg
  xmlns:svg="http://www.w3.org/2000/svg"
  xmlns="http://www.w3.org/2000/svg"
  xmlns:xlink="http://www.w3.org/1999/xlink"
  version="1.1"
  width="28.2702mm" height="12.9794mm" viewBox="0.0000 0.0000 28.2702 12.9794">
<title>SVG Image created as att_edge-F_Cu.svg date 2023/11/09 19:21:21 </title>
  <desc>Image generated by PCBNEW </desc>
<g style="fill:#000000; fill-opacity:1.0000;stroke:#000000; stroke-opacity:1.0000;
stroke-linecap:round; stroke-linejoin:round;"
 transform="translate(0 0) scale(1 1)">
</g>
<g style="fill:#000000; fill-opacity:0.0; 
stroke:#000000; stroke-width:0.0000; stroke-opacity:1; 
stroke-linecap:round; stroke-linejoin:round;">
</g>
<g style="fill:#000000; fill-opacity:1.0000; 
stroke:#000000; stroke-width:0.0212; stroke-opacity:1; 
stroke-linecap:round; stroke-linejoin:round;">
<rect x="-5.008050" y="-5.000000" width="38.278250" height="22.998750" rx="0.000000" />
</g>
<g style="fill:#FFFFFF; fill-opacity:1.0000; 
stroke:#FFFFFF; stroke-width:0.0212; stroke-opacity:1; 
stroke-linecap:round; stroke-linejoin:round;">
</g>
<g style="fill:#FFFFFF; fill-opacity:0.0; 
stroke:#FFFFFF; stroke-width:0.2000; stroke-opacity:1; 
stroke-linecap:round; stroke-linejoin:round;">
<path style="fill:#FFFFFF; fill-opacity:0.0; 
stroke:#FFFFFF; stroke-width:0.2000; stroke-opacity:1; 
stroke-linecap:round; stroke-linejoin:round;fill:none"
d="M 22.7902,2.1505
3.4902,2.1505
3.4902,9.6505
22.7902,9.6505
Z" /> 
</g>
<g style="fill:#FFFFFF; fill-opacity:1.0000; 
stroke:#FFFFFF; stroke-width:0.0212; stroke-opacity:1; 
stroke-linecap:round; stroke-linejoin:round;">
<path style="fill:#FFFFFF; fill-opacity:1.0000; 
stroke:#FFFFFF; stroke-width:0.0000; stroke-opacity:1; 
stroke-linecap:round; stroke-linejoin:round;fill-rule:evenodd;"
d="M 24.5702,2.8505
21.7702,2.8505
21.7702,3.4505
24.5702,3.4505
" /> 
<path style="fill:#FFFFFF; fill-opacity:1.0000; 
stroke:#FFFFFF; stroke-width:0.0000; stroke-opacity:1; 
stroke-linecap:round; stroke-linejoin:round;fill-rule:evenodd;"
d="M 24.5702,4.6505
21.7702,4.6505
21.7702,5.2505
24.5702,5.2505
" /> 
<path style="fill:#FFFFFF; fill-opacity:1.0000; 
stroke:#FFFFFF; stroke-width:0.0000; stroke-opacity:1; 
stroke-linecap:round; stroke-linejoin:round;fill-rule:evenodd;"
d="M 24.5702,6.4505
21.7702,6.4505
21.7702,7.0505
24.5702,7.0505
" /> 
<path style="fill:#FFFFFF; fill-opacity:1.0000; 
stroke:#FFFFFF; stroke-width:0.0000; stroke-opacity:1; 
stroke-linecap:round; stroke-linejoin:round;fill-rule:evenodd;"
d="M 24.5702,8.2505
21.7702,8.2505
21.7702,8.8505
24.5702,8.8505
" /> 
</g>
<g style="fill:#FFFFFF; fill-opacity:1.0000; 
stroke:#FFFFFF; stroke-width:0.0000; stroke-opacity:1; 
stroke-linecap:round; stroke-linejoin:round;">
<circle cx="12.0902" cy="5.8505" r="0.4500" /> 
<circle cx="5.0902" cy="5.8505" r="0.4500" /> 
<g >
<path style="fill:#FFFFFF; fill-opacity:1.0000; 
stroke:#FFFFFF; stroke-width:0.0000; stroke-opacity:1; 
stroke-linecap:round; stroke-linejoin:round;fill-rule:evenodd;"
d="M 22.3702,4.6255
22.3591,4.5414
22.3114,4.4391
22.2316,4.3593
22.1293,4.3116
22.0452,4.3005
19.4952,4.3005
19.4111,4.3116
19.3088,4.3593
19.2290,4.4391
19.1813,4.5414
19.1702,4.6255
19.1702,5.2755
19.1813,5.3596
19.2290,5.4619
19.3088,5.5417
19.4111,5.5894
19.4952,5.6005
22.0452,5.6005
22.1293,5.5894
22.2316,5.5417
22.3114,5.4619
22.3591,5.3596
22.3702,5.2755
Z" /> 
<path style="fill:#FFFFFF; fill-opacity:1.0000; 
stroke:#FFFFFF; stroke-width:0.0000; stroke-opacity:1; 
stroke-linecap:round; stroke-linejoin:round;fill-rule:evenodd;"
d="M 22.3702,6.4255
22.3591,6.3414
22.3114,6.2391
22.2316,6.1593
22.1293,6.1116
22.0452,6.1005
19.4952,6.1005
19.4111,6.1116
19.3088,6.1593
19.2290,6.2391
19.1813,6.3414
19.1702,6.4255
19.1702,7.0755
19.1813,7.1596
19.2290,7.2619
19.3088,7.3417
19.4111,7.3894
19.4952,7.4005
22.0452,7.4005
22.1293,7.3894
22.2316,7.3417
22.3114,7.2619
22.3591,7.1596
22.3702,7.0755
Z" /> 
<path style="fill:#FFFFFF; fill-opacity:1.0000; 
stroke:#FFFFFF; stroke-width:0.0000; stroke-opacity:1; 
stroke-linecap:round; stroke-linejoin:round;fill-rule:evenodd;"
d="M 22.3702,8.2255
22.3591,8.1414
22.3114,8.0391
22.2316,7.9593
22.1293,7.9116
22.0452,7.9005
19.4952,7.9005
19.4111,7.9116
19.3088,7.9593
19.2290,8.0391
19.1813,8.1414
19.1702,8.2255
19.1702,8.8755
19.1813,8.9596
19.2290,9.0619
19.3088,9.1417
19.4111,9.1894
19.4952,9.2005
22.0452,9.2005
22.1293,9.1894
22.2316,9.1417
22.3114,9.0619
22.3591,8.9596
22.3702,8.8755
Z" /> 
<path style="fill:#FFFFFF; fill-opacity:1.0000; 
stroke:#FFFFFF; stroke-width:0.0000; stroke-opacity:1; 
stroke-linecap:round; stroke-linejoin:round;fill-rule:evenodd;"
d="M 22.3702,2.8255
22.3591,2.7414
22.3114,2.6391
22.2316,2.5593
22.1293,2.5116
22.0452,2.5005
19.4952,2.5005
19.4111,2.5116
19.3088,2.5593
19.2290,2.6391
19.1813,2.7414
19.1702,2.8255
19.1702,3.4755
19.1813,3.5596
19.2290,3.6619
19.3088,3.7417
19.4111,3.7894
19.4952,3.8005
22.0452,3.8005
22.1293,3.7894
22.2316,3.7417
22.3114,3.6619
22.3591,3.5596
22.3702,3.4755
Z" /> 
</g>
<g >
</g>
<g style="fill:#FFFFFF; fill-opacity:1.0000; 
stroke:#FFFFFF; stroke-width:0.0000; stroke-opacity:1; 
stroke-linecap:round; stroke-linejoin:round;">
<path style="fill:#FFFFFF; fill-opacity:1.0000; 
stroke:#FFFFFF; stroke-width:0.0000; stroke-opacity:1; 
stroke-linecap:round; stroke-linejoin:round;fill-rule:evenodd;"
d="M 8.8902,7.2195
8.8744,7.1108
8.8193,6.9981
8.7306,6.9094
8.6179,6.8543
8.5092,6.8385
7.1712,6.8385
7.0625,6.8543
6.9498,6.9094
6.8611,6.9981
6.8060,7.1108
6.7902,7.2195
6.7902,7.9815
6.8060,8.0902
6.8611,8.2029
6.9498,8.2916
7.0625,8.3467
7.1712,8.3625
8.5092,8.3625
8.6179,8.3467
8.7306,8.2916
8.8193,8.2029
8.8744,8.0902
8.8902,7.9815
Z" /> 
<path style="fill:#FFFFFF; fill-opacity:1.0000; 
stroke:#FFFFFF; stroke-width:0.0000; stroke-opacity:1; 
stroke-linecap:round; stroke-linejoin:round;fill-rule:evenodd;"
d="M 6.2902,3.7195
6.2744,3.6108
6.2193,3.4981
6.1306,3.4094
6.0179,3.3543
5.9092,3.3385
4.5712,3.3385
4.4625,3.3543
4.3498,3.4094
4.2611,3.4981
4.2060,3.6108
4.1902,3.7195
4.1902,4.4815
4.2060,4.5902
4.2611,4.7029
4.3498,4.7916
4.4625,4.8467
4.5712,4.8625
5.9092,4.8625
6.0179,4.8467
6.1306,4.7916
6.2193,4.7029
6.2744,4.5902
6.2902,4.4815
Z" /> 
<path style="fill:#FFFFFF; fill-opacity:1.0000; 
stroke:#FFFFFF; stroke-width:0.0000; stroke-opacity:1; 
stroke-linecap:round; stroke-linejoin:round;fill-rule:evenodd;"
d="M 6.2902,7.2195
6.2744,7.1108
6.2193,6.9981
6.1306,6.9094
6.0179,6.8543
5.9092,6.8385
4.5712,6.8385
4.4625,6.8543
4.3498,6.9094
4.2611,6.9981
4.2060,7.1108
4.1902,7.2195
4.1902,7.9815
4.2060,8.0902
4.2611,8.2029
4.3498,8.2916
4.4625,8.3467
4.5712,8.3625
5.9092,8.3625
6.0179,8.3467
6.1306,8.2916
6.2193,8.2029
6.2744,8.0902
6.2902,7.9815
Z" /> 
<path style="fill:#FFFFFF; fill-opacity:1.0000; 
stroke:#FFFFFF; stroke-width:0.0000; stroke-opacity:1; 
stroke-linecap:round; stroke-linejoin:round;fill-rule:evenodd;"
d="M 13.7212,6.9005
13.8299,6.8847
13.9426,6.8296
14.0313,6.7409
14.0864,6.6282
14.1022,6.5195
14.1022,5.1815
14.0864,5.0728
14.0313,4.9601
13.9426,4.8714
13.8299,4.8163
13.7212,4.8005
12.9592,4.8005
12.8505,4.8163
12.7378,4.8714
12.6491,4.9601
12.5940,5.0728
12.5782,5.1815
12.5782,6.5195
12.5940,6.6282
12.6491,6.7409
12.7378,6.8296
12.8505,6.8847
12.9592,6.9005
Z" /> 
</g>
<g >
</g>
<g >
</g>
<g >
</g>
<g >
</g>
<g >
</g>
<g style="fill:#FFFFFF; fill-opacity:1.0000; 
stroke:#FFFFFF; stroke-width:0.0000; stroke-opacity:1; 
stroke-linecap:round; stroke-linejoin:round;">
<circle cx="7.8902" cy="6.0505" r="0.4500" /> 
</g>
<g style="fill:#FFFFFF; fill-opacity:1.0000; 
stroke:#FFFFFF; stroke-width:0.0212; stroke-opacity:1; 
stroke-linecap:round; stroke-linejoin:round;">
</g>
<g style="fill:#FFFFFF; fill-opacity:1.0000; 
stroke:#FFFFFF; stroke-width:0.0000; stroke-opacity:1; 
stroke-linecap:round; stroke-linejoin:round;">
<circle cx="14.8902" cy="4.9505" r="0.4500" /> 
</g>
<g style="fill:#FFFFFF; fill-opacity:1.0000; 
stroke:#FFFFFF; stroke-width:0.0212; stroke-opacity:1; 
stroke-linecap:round; stroke-linejoin:round;">
</g>
<g >
</g>
<g style="fill:#FFFFFF; fill-opacity:1.0000; 
stroke:#FFFFFF; stroke-width:0.0212; stroke-opacity:1; 
stroke-linecap:round; stroke-linejoin:round;">
</g>
<g style="fill:#FFFFFF; fill-opacity:1.0000; 
stroke:#FFFFFF; stroke-width:0.7000; stroke-opacity:1; 
stroke-linecap:round; stroke-linejoin:round;">
</g>
<g style="fill:#FFFFFF; fill-opacity:0.0; 
stroke:#FFFFFF; stroke-width:0.7000; stroke-opacity:1; 
stroke-linecap:round; stroke-linejoin:round;">
<path d="M7.8902 6.0505
L10.7902 3.1505
" />
<path d="M10.7902 3.1505
L13.0902 3.1505
" />
<path d="M13.0902 3.1505
L14.8902 4.9505
" />
</g>
<g >
</g>
</g> 
</svg>
